<?xml version="1.0" encoding="UTF-8" standalone="no"?>
<!-- Created with Inkscape (http://www.inkscape.org/) -->

<svg
   width="210mm"
   height="297mm"
   viewBox="0 0 210 297"
   version="1.1"
   id="svg1"
   xml:space="preserve"
   inkscape:version="1.3.2 (091e20e, 2023-11-25, custom)"
   sodipodi:docname="school_color.svg"
   xmlns:inkscape="http://www.inkscape.org/namespaces/inkscape"
   xmlns:sodipodi="http://sodipodi.sourceforge.net/DTD/sodipodi-0.dtd"
   xmlns:xlink="http://www.w3.org/1999/xlink"
   xmlns="http://www.w3.org/2000/svg"
   xmlns:svg="http://www.w3.org/2000/svg"><sodipodi:namedview
     id="namedview1"
     pagecolor="#ffffff"
     bordercolor="#000000"
     borderopacity="0.25"
     inkscape:showpageshadow="2"
     inkscape:pageopacity="0.0"
     inkscape:pagecheckerboard="0"
     inkscape:deskcolor="#d1d1d1"
     inkscape:document-units="mm"
     showgrid="false"
     inkscape:zoom="0.45344416"
     inkscape:cx="395.8591"
     inkscape:cy="561.25984"
     inkscape:window-width="1366"
     inkscape:window-height="705"
     inkscape:window-x="-8"
     inkscape:window-y="-8"
     inkscape:window-maximized="1"
     inkscape:current-layer="layer1" /><defs
     id="defs1"><linearGradient
   id="linearGradient39"
   inkscape:collect="always"><stop
     style="stop-color:#ff1500;stop-opacity:1;"
     offset="0"
     id="stop39" /><stop
     style="stop-color:#f9847f;stop-opacity:0.49803922;"
     offset="0.5"
     id="stop41" /><stop
     style="stop-color:#090962;stop-opacity:1;"
     offset="1"
     id="stop40" /></linearGradient>
	
	
	
	
	
	
	
	
	
	
	
<linearGradient
   inkscape:collect="always"
   xlink:href="#linearGradient39"
   id="linearGradient40"
   x1="412.39917"
   y1="265.74385"
   x2="496.4141"
   y2="265.74385"
   gradientUnits="userSpaceOnUse" /></defs><g
     inkscape:label="Layer 1"
     inkscape:groupmode="layer"
     id="layer1"><path
       d="m 203.94297,231.9454 h -6.52802 v -82.6883 h 6.52802 c 1.08286,0 2.07987,-0.58989 2.60132,-1.53942 0.52105,-0.94953 0.48347,-2.10757 -0.0977,-3.02109 l -22.15574,-34.81613 c -0.54479,-0.85616 -1.48878,-1.37444 -2.5036,-1.37444 H 122.87916 L 108.79209,94.419333 V 82.789956 h 28.68373 c 1.09434,0 2.10005,-0.60216 2.61636,-1.567121 0.5163,-0.964565 0.45973,-2.135653 -0.14758,-3.046015 l -5.2327,-7.849454 5.2331,-7.849453 c 0.6073,-0.910362 0.66348,-2.08145 0.14757,-3.046015 -0.5167,-0.964961 -1.52241,-1.567121 -2.61675,-1.567121 h -28.68373 v -3.362921 c 0,-1.638732 -1.32856,-2.967284 -2.96729,-2.967284 -1.63873,0 -2.96728,1.328552 -2.96728,2.967284 V 94.419333 L 88.770444,108.50641 h -58.90809 c -1.014415,0 -1.958803,0.51829 -2.503596,1.37445 L 5.2030428,144.69698 c -0.5811919,0.91353 -0.6187775,2.07156 -0.097723,3.02109 0.5214506,0.94914 1.5184578,1.53903 2.6013184,1.53903 h 6.5280238 v 82.6883 H 7.7066386 c -1.6387317,0 -2.9672833,1.32855 -2.9672833,2.96728 0,1.63873 1.3285516,2.96728 2.9672833,2.96728 H 203.94297 c 1.63873,0 2.96728,-1.32855 2.96728,-2.96728 0,-1.63873 -1.32855,-2.96728 -2.96728,-2.96728 z m -23.78456,-117.50442 18.37936,28.88156 h -40.84248 l -28.88156,-28.88156 z m -48.22705,-50.641637 -3.25492,4.88217 c -0.66467,0.996612 -0.66467,2.295095 0,3.291707 l 3.25492,4.88217 H 108.79209 V 63.799343 Z M 31.491194,114.44098 H 82.835482 L 53.953925,143.32254 H 13.112238 Z M 20.169228,149.2571 H 55.18238 c 0.09812,0 0.196236,-0.005 0.294354,-0.015 0.04194,-0.004 0.08308,-0.0119 0.124626,-0.0178 0.0542,-0.008 0.108405,-0.0142 0.162607,-0.0249 0.04827,-0.01 0.09495,-0.023 0.14243,-0.0348 0.04629,-0.0115 0.09298,-0.0222 0.138869,-0.0356 0.04669,-0.0143 0.09218,-0.032 0.138077,-0.0483 0.0455,-0.0162 0.091,-0.0313 0.1361,-0.0498 0.04312,-0.0178 0.08427,-0.0388 0.126208,-0.0586 0.0455,-0.0218 0.09179,-0.0419 0.136495,-0.0661 0.04075,-0.0218 0.07913,-0.0467 0.118692,-0.07 0.04352,-0.0257 0.08783,-0.0506 0.130164,-0.0791 0.04431,-0.0297 0.08585,-0.0625 0.128187,-0.0946 0.03482,-0.0261 0.07082,-0.0503 0.104448,-0.0783 0.07596,-0.0621 0.14876,-0.12779 0.217997,-0.19742 L 105.8248,99.844318 154.36797,148.3871 c 0.0692,0.0692 0.14243,0.13491 0.218,0.19742 0.0336,0.0277 0.0692,0.0518 0.10405,0.0779 0.0427,0.032 0.0847,0.0653 0.12898,0.0949 0.0419,0.0281 0.0858,0.0526 0.12898,0.0783 0.04,0.0241 0.0787,0.0491 0.11988,0.0708 0.0443,0.0237 0.0898,0.0439 0.13531,0.0653 0.0423,0.0202 0.0843,0.0411 0.12779,0.0593 0.0443,0.0182 0.0894,0.0328 0.13412,0.0491 0.0463,0.0166 0.0922,0.0344 0.13966,0.0491 0.0451,0.0138 0.091,0.0237 0.13649,0.0352 0.0483,0.0123 0.0958,0.0257 0.14481,0.0352 0.0522,0.0103 0.10484,0.0166 0.15746,0.0241 0.0431,0.006 0.0858,0.0142 0.12977,0.0186 0.0973,0.01 0.19505,0.0146 0.29277,0.0146 h 35.01434 v 82.6883 H 127.7827 v -41.34415 c 0,-5.12667 -4.17081,-9.29749 -9.29749,-9.29749 H 93.164397 c -5.126674,0 -9.297488,4.17082 -9.297488,9.29749 v 41.34415 H 20.169228 Z M 121.84813,193.96417 H 89.801476 v -3.36292 c 0,-1.85435 1.508567,-3.36292 3.362921,-3.36292 h 25.320813 c 1.85436,0 3.36292,1.50857 3.36292,3.36292 z m -32.046654,5.93457 H 102.85752 V 231.9454 H 89.801476 Z m 18.990614,0 h 13.05604 v 32.04666 h -13.05604 z"
       id="path1"
       style="fill:#000000;stroke-width:0.395638" /><path
       d="m 105.8248,171.41282 c 12.10771,0 21.9579,-9.8502 21.9579,-21.9579 0,-12.1077 -9.85019,-21.95789 -21.9579,-21.95789 -12.107697,0 -21.957891,9.85019 -21.957891,21.95789 0,12.1077 9.850194,21.9579 21.957891,21.9579 z m 0,-37.98123 c 8.83539,0 16.02333,7.18795 16.02333,16.02333 0,8.83538 -7.18794,16.02333 -16.02333,16.02333 -8.835377,0 -16.023324,-7.18795 -16.023324,-16.02333 0,-8.83538 7.187947,-16.02333 16.023324,-16.02333 z"
       id="path2"
       style="fill:#000000;stroke-width:0.395638" /><path
       d="m 105.8248,152.4222 c 1.63873,0 2.96729,-1.32855 2.96729,-2.96728 v -9.49531 c 0,-1.63873 -1.32856,-2.96728 -2.96729,-2.96728 -1.63873,0 -2.96728,1.32855 -2.96728,2.96728 v 6.52803 h -6.528021 c -1.638731,0 -2.967283,1.32855 -2.967283,2.96728 0,1.63873 1.328552,2.96728 2.967283,2.96728 z"
       id="path3"
       style="fill:#000000;stroke-width:0.395638" /><path
       d="M 74.173784,197.12927 H 58.348273 c -1.638731,0 -2.967283,1.32855 -2.967283,2.96729 v 18.99061 c 0,1.63873 1.328552,2.96728 2.967283,2.96728 h 15.825511 c 1.638732,0 2.967283,-1.32855 2.967283,-2.96728 v -18.99061 c 0,-1.63874 -1.328551,-2.96729 -2.967283,-2.96729 z m -2.967283,5.93457 v 3.56074 h -9.890944 v -3.56074 z m -9.890944,13.05605 v -3.56074 h 9.890944 v 3.56074 z"
       id="path4"
       style="fill:#000000;stroke-width:0.395638" /><path
       d="M 45.687865,197.12927 H 29.862354 c -1.638732,0 -2.967283,1.32855 -2.967283,2.96729 v 18.99061 c 0,1.63873 1.328551,2.96728 2.967283,2.96728 h 15.825511 c 1.638731,0 2.967283,-1.32855 2.967283,-2.96728 v -18.99061 c 0,-1.63874 -1.328552,-2.96729 -2.967283,-2.96729 z m -2.967284,5.93457 v 3.56074 h -9.890944 v -3.56074 z m -9.890944,13.05605 v -3.56074 h 9.890944 v 3.56074 z"
       id="path5"
       style="fill:#000000;stroke-width:0.395638" /><path
       d="M 73.18469,159.14805 H 59.337368 c -2.181547,0 -3.956378,1.77483 -3.956378,3.95637 v 21.16663 c 0,1.63873 1.328552,2.96728 2.967283,2.96728 h 15.825511 c 1.638732,0 2.967283,-1.32855 2.967283,-2.96728 v -21.16663 c 0,-2.18154 -1.774831,-3.95637 -3.956377,-3.95637 z m -1.978189,5.93456 v 6.72585 h -9.890944 v -6.72585 z m -9.890944,16.22115 v -3.56074 h 9.890944 v 3.56074 z"
       id="path6"
       style="fill:#000000;stroke-width:0.395638" /><path
       d="M 44.69877,159.14805 H 30.851448 c -2.181546,0 -3.956377,1.77483 -3.956377,3.95637 v 21.16663 c 0,1.63873 1.328551,2.96728 2.967283,2.96728 h 15.825511 c 1.638731,0 2.967283,-1.32855 2.967283,-2.96728 v -21.16663 c 0,-2.18154 -1.774831,-3.95637 -3.956378,-3.95637 z m -1.978189,5.93456 v 6.72585 h -9.890944 v -6.72585 z m -9.890944,16.22115 v -3.56074 h 9.890944 v 3.56074 z"
       id="path7"
       style="fill:#000000;stroke-width:0.395638" /><path
       d="m 165.96174,222.05445 h 15.82551 c 1.63874,0 2.96729,-1.32855 2.96729,-2.96728 v -18.99061 c 0,-1.63874 -1.32855,-2.96729 -2.96729,-2.96729 h -15.82551 c -1.63873,0 -2.96728,1.32855 -2.96728,2.96729 v 18.99061 c 0,1.63873 1.32855,2.96728 2.96728,2.96728 z m 2.96729,-5.93456 v -3.56074 h 9.89094 v 3.56074 z m 9.89094,-13.05605 v 3.56074 h -9.89094 v -3.56074 z"
       id="path8"
       style="fill:#000000;stroke-width:0.395638" /><path
       d="m 137.47582,222.05445 h 15.82552 c 1.63873,0 2.96728,-1.32855 2.96728,-2.96728 v -18.99061 c 0,-1.63874 -1.32855,-2.96729 -2.96728,-2.96729 h -15.82552 c -1.63873,0 -2.96728,1.32855 -2.96728,2.96729 v 18.99061 c 0,1.63873 1.32855,2.96728 2.96728,2.96728 z m 2.96729,-5.93456 v -3.56074 h 9.89094 v 3.56074 z m 9.89094,-13.05605 v 3.56074 h -9.89094 v -3.56074 z"
       id="path9"
       style="fill:#000000;stroke-width:0.395638" /><path
       d="m 165.96174,187.23833 h 15.82551 c 1.63874,0 2.96729,-1.32855 2.96729,-2.96728 v -21.16663 c 0,-2.18154 -1.77483,-3.95637 -3.95638,-3.95637 h -13.84732 c -2.18155,0 -3.95638,1.77483 -3.95638,3.95637 v 21.16663 c 0,1.63873 1.32855,2.96728 2.96728,2.96728 z m 2.96729,-5.93457 v -3.56074 h 9.89094 v 3.56074 z m 9.89094,-16.22115 v 6.72585 h -9.89094 v -6.72585 z"
       id="path10"
       style="fill:#000000;stroke-width:0.395638" /><path
       d="m 137.47582,187.23833 h 15.82552 c 1.63873,0 2.96728,-1.32855 2.96728,-2.96728 v -21.16663 c 0,-2.18154 -1.77483,-3.95637 -3.95638,-3.95637 h -13.84732 c -2.18155,0 -3.95638,1.77483 -3.95638,3.95637 v 21.16663 c 0,1.63873 1.32855,2.96728 2.96728,2.96728 z m 2.96729,-5.93457 v -3.56074 h 9.89094 v 3.56074 z m 9.89094,-16.22115 v 6.72585 h -9.89094 v -6.72585 z"
       id="path11"
       style="fill:#000000;stroke-width:0.395638" /><path
       style="fill:#ff0000;fill-opacity:1;stroke-width:2.20534"
       d="M 77.187012,720.04455 V 564.56786 h 68.926818 68.92682 l 92.60484,-92.62453 92.60483,-92.62453 92.64377,92.62453 92.64376,92.62453 h 68.90736 68.90736 v 155.47669 155.4767 H 603.16136 482.97016 v -83.47692 c 0,-82.93819 -0.032,-83.52395 -4.96202,-90.76762 -2.72912,-4.00989 -7.76391,-9.36678 -11.18844,-11.90418 -5.95972,-4.41587 -8.80042,-4.61347 -66.32188,-4.61347 h -60.09547 l -7.8991,5.41255 c -16.29459,11.16524 -15.96051,9.12113 -16.68708,102.09793 l -0.65057,83.25171 H 196.1763 77.187012 Z M 181.21583,836.58594 c 3.62791,-3.28321 4.033,-7.7135 4.033,-44.10687 0,-52.51745 2.7219,-49.27841 -41.41082,-49.27841 -45.626138,0 -42.39222,-3.78649 -42.39222,49.63568 0,38.40636 0.39371,42.99887 3.85935,45.01743 2.15317,1.25411 18.89445,2.27752 37.86852,2.31492 28.61455,0.0564 34.64889,-0.51188 38.04217,-3.58275 z m 108.66175,-1.25158 c 2.79464,-3.98991 3.43306,-12.19211 3.43306,-44.10686 0,-51.19676 2.81058,-48.02684 -42.58268,-48.02684 -25.67699,0 -34.78639,0.74955 -38.04217,3.13024 -3.97654,2.90772 -4.28086,6.09749 -4.28086,44.87057 0,32.13664 0.69639,42.57947 3.02671,45.38733 2.5892,3.11977 8.2296,3.64696 39.01979,3.64696 34.69421,0 36.11697,-0.17687 39.42615,-4.9014 z m 296.88869,2.61847 c 3.99244,-2.13669 4.26571,-5.02492 4.26571,-45.08449 0,-53.41194 3.1588,-49.66768 -41.90153,-49.66768 -44.93031,0 -41.90152,-3.46367 -41.90152,47.9176 0,35.10404 0.52878,41.63578 3.64983,45.0845 3.2351,3.57475 7.51148,4.033 37.63581,4.033 19.21004,0 35.84057,-0.99254 38.2517,-2.28293 z m 108.86198,-1.18262 c 2.90565,-2.90565 3.46554,-10.18952 3.46554,-45.08447 0,-52.03968 3.07193,-48.48508 -41.90152,-48.48508 -44.97345,0 -41.90152,-3.5546 -41.90152,48.48508 0,34.89495 0.55989,42.17882 3.46554,45.08447 5.12348,5.12348 71.74848,5.12348 76.87196,0 z M 182.96589,703.64946 c 1.35661,-2.53485 2.28294,-22.26215 2.28294,-48.61779 0,-44.14942 -0.0247,-44.37684 -5.41312,-49.7652 -5.21699,-5.217 -6.50065,-5.41312 -35.43047,-5.41312 -28.88841,0 -37.28381,1.52513 -41.27168,7.4975 -2.89057,4.32905 -2.00332,94.95595 0.95864,97.9179 1.84784,1.84786 13.80291,2.64641 39.61858,2.64641 34.29624,0 37.13741,-0.30874 39.25511,-4.2657 z m 107.11617,-1.05938 c 2.95157,-4.50466 3.38413,-12.13821 2.80752,-49.54652 -0.59992,-38.92171 -1.15282,-44.69278 -4.6135,-48.15449 -3.26559,-3.26655 -8.6443,-4.05809 -31.74008,-4.67094 -36.96794,-0.98091 -42.1125,0.0928 -46.09313,9.61978 -4.72808,11.31588 -4.49258,86.34426 0.29246,93.17586 3.31062,4.72658 4.72462,4.90139 39.64533,4.90139 35.85145,0 36.24704,-0.0531 39.7014,-5.32508 z m 298.3035,2.67867 c 1.8921,-1.89209 2.64642,-15.98993 2.64642,-49.46016 v -46.81374 l -5.81077,-4.57075 c -5.24608,-4.12657 -8.79198,-4.57075 -36.4884,-4.57075 -29.63086,0 -30.86234,0.1847 -36.09075,5.41312 -5.38838,5.38836 -5.41313,5.61578 -5.41313,49.7652 0,26.35564 0.92634,46.08294 2.28293,48.61779 2.1177,3.95696 4.95889,4.2657 39.25511,4.2657 25.81568,0 37.77074,-0.79855 39.61859,-2.64641 z m 108.06182,0 c 1.8921,-1.89209 2.64641,-15.98993 2.64641,-49.46016 v -46.81374 l -5.81077,-4.57075 c -5.23778,-4.12005 -8.79663,-4.57075 -36.09075,-4.57075 -27.29412,0 -30.85297,0.4507 -36.09075,4.57075 l -5.81077,4.57075 v 46.81374 c 0,33.47023 0.75432,47.56807 2.64641,49.46016 1.84576,1.84576 13.72213,2.64641 39.25511,2.64641 25.53298,0 37.40935,-0.80065 39.25511,-2.64641 z M 434.83887,641.28341 c 17.41672,-8.00085 31.32693,-21.57428 39.86141,-38.89632 6.17381,-12.53075 7.26931,-17.30601 7.90386,-34.45314 0.59751,-16.14635 -0.14617,-22.26067 -3.93738,-32.37196 -15.67452,-41.80432 -60.4777,-63.86582 -102.93602,-50.68662 -25.52661,7.92353 -44.32453,25.35089 -54.61766,50.63548 -6.18107,15.18349 -5.90274,43.81774 0.58686,60.37648 8.59274,21.9251 30.10889,41.67141 53.83922,49.41062 15.06331,4.91262 44.15362,2.94325 59.29971,-4.01454 z"
       id="path12"
       transform="scale(0.26458333)" /><path
       style="fill:#4d4d4d;fill-opacity:1;stroke-width:2.20534"
       d="m 543.6171,487.38085 -52.89378,-52.92824 h 94.95182 94.95181 l 31.83819,49.97888 c 17.511,27.48838 32.6318,51.30609 33.60178,52.92823 1.45855,2.43921 -11.32331,2.94936 -73.89623,2.94936 h -75.65982 z"
       id="path13"
       transform="scale(0.26458333)" /><path
       style="fill:#4d4d4d;fill-opacity:1;stroke-width:2.20534"
       d="m 54.219825,537.5524 c 0.853541,-1.51617 15.882388,-25.33388 33.397437,-52.92823 l 31.845548,-50.17156 h 95.17672 95.17672 l -52.89377,52.92824 -52.89377,52.92823 h -75.68039 c -59.901759,0 -75.356834,-0.57474 -74.128495,-2.75668 z"
       id="path14"
       transform="scale(0.26458333)" /><path
       style="fill:#ffff00;fill-opacity:1;stroke-width:2.20534"
       d="m 380.03406,620.50079 c -32.09963,-11.37419 -47.94531,-50.31621 -32.94739,-80.97085 17.95263,-36.69387 65.71073,-44.98782 94.31863,-16.37992 12.42017,12.42017 16.20341,22.34805 16.20341,42.52051 0,15.27383 -0.81402,19.02749 -6.06251,27.95577 -14.96818,25.46259 -44.34281,36.50167 -71.51214,26.87449 z m 27.46373,-46.13394 c 4.55615,-3.19125 4.90139,-5.1294 4.90139,-27.51595 0,-23.53782 -0.13054,-24.16841 -5.76748,-27.86188 -5.16927,-3.38703 -6.37018,-3.44162 -11.57806,-0.52629 -5.32472,2.98075 -5.86474,4.58325 -6.45852,19.16557 l -0.64795,15.91284 h -14.89972 c -8.64821,0 -16.01008,1.11036 -17.54613,2.64641 -4.0699,4.06991 -3.27868,16.61425 1.21294,19.23038 6.44925,3.75634 45.06093,2.95719 50.78353,-1.05108 z"
       id="path15"
       transform="scale(0.26458333)" /><path
       style="fill:#ffff00;fill-opacity:1;stroke-width:2.20534"
       d="m 379.79332,619.13518 c -10.58408,-3.39146 -25.66353,-17.63477 -31.45648,-29.71226 -7.61771,-15.88186 -7.15232,-35.60269 1.2019,-50.93005 13.57204,-24.9004 42.5106,-37.21187 67.49337,-28.71403 12.09107,4.11275 26.24687,15.41863 32.35472,25.84089 8.46518,14.44474 9.63393,39.96985 2.48553,54.28314 -5.97358,11.96094 -16.59785,22.01794 -29.40496,27.83491 -9.98389,4.53466 -30.76009,5.21499 -42.67408,1.3974 z m 30.4511,-45.74595 c 1.14797,-1.81941 2.10241,-14.43765 2.12099,-28.04053 0.0303,-22.21475 -0.40048,-24.96492 -4.23194,-27.01546 -12.106,-6.47893 -19.98028,0.34506 -20.02684,17.35562 -0.0186,6.78641 -0.79031,13.52906 -1.71497,14.98366 -0.96887,1.52414 -8.19634,2.92578 -17.05765,3.30802 l -15.37643,0.66327 -0.69363,8.42395 c -1.1535,14.00868 1.31197,15.19412 29.86644,14.3603 19.26349,-0.56252 25.50747,-1.4926 27.11403,-4.03883 z"
       id="path16"
       transform="scale(0.26458333)" /><path
       style="fill:#0000ff;fill-opacity:1;stroke-width:2.20534"
       d="m 412.39918,815.97698 v -59.54426 h 23.1561 23.1561 v 59.54426 59.54427 h -23.1561 -23.1561 z"
       id="path17"
       transform="scale(0.26458333)" /><path
       style="fill:#0000ff;fill-opacity:1;stroke-width:2.20534"
       d="m 339.62285,725.45767 c 0,-4.1904 2.03578,-8.75205 5.41312,-12.12939 l 5.41311,-5.41312 h 49.22976 c 56.68822,0 59.03254,0.61803 59.03254,15.56246 v 8.69632 h -59.54426 -59.54427 z"
       id="path18"
       transform="scale(0.26458333)" /><path
       style="fill:#0000ff;fill-opacity:1;stroke-width:2.20534"
       d="m 339.62285,815.97698 v -59.54426 h 24.25878 24.25877 v 59.54426 59.54427 h -24.25877 -24.25878 z"
       id="path19"
       transform="scale(0.26458333)" /><path
       style="fill:#0000ff;fill-opacity:1;stroke-width:2.20534"
       d="m 531.48771,636.24151 v -12.12939 h 17.64274 17.64275 v 12.12939 12.12939 h -17.64275 -17.64274 z"
       id="path20"
       transform="scale(0.26458333)" /><path
       style="fill:#0000ff;fill-opacity:1;stroke-width:2.20534"
       d="m 531.48771,678.14303 c 0,-5.42147 0.29405,-5.51336 17.64274,-5.51336 17.34871,0 17.64275,0.0919 17.64275,5.51336 0,5.42147 -0.29404,5.51336 -17.64275,5.51336 -17.34869,0 -17.64274,-0.0919 -17.64274,-5.51336 z"
       id="path21"
       transform="scale(0.26458333)" /><path
       style="fill:#0000ff;fill-opacity:1;stroke-width:2.20534"
       d="m 639.54953,636.24151 v -12.12939 h 17.64274 17.64275 v 12.12939 12.12939 h -17.64275 -17.64274 z"
       id="path22"
       transform="scale(0.26458333)" /><path
       style="fill:#0000ff;fill-opacity:1;stroke-width:2.20534"
       d="m 639.54953,678.14303 c 0,-5.42147 0.29404,-5.51336 17.64274,-5.51336 17.3487,0 17.64275,0.0919 17.64275,5.51336 0,5.42147 -0.29405,5.51336 -17.64275,5.51336 -17.3487,0 -17.64274,-0.0919 -17.64274,-5.51336 z"
       id="path23"
       transform="scale(0.26458333)" /><path
       style="fill:#0000ff;fill-opacity:1;stroke-width:2.20534"
       d="m 675.34666,774.07546 c 0,-4.24529 0.45385,-5.98199 1.00856,-3.85935 0.5547,2.12264 0.5547,5.59606 0,7.7187 -0.55471,2.12264 -1.00856,0.38594 -1.00856,-3.85935 z"
       id="path24"
       transform="scale(0.26458333)" /><path
       style="fill:#0000ff;fill-opacity:1;stroke-width:2.20534"
       d="m 675.26495,810.46362 c 0.0449,-3.63881 0.5392,-4.86043 1.09835,-2.7147 0.55915,2.14572 0.52238,5.12294 -0.0817,6.61603 -0.60409,1.49308 -1.06158,-0.26251 -1.01663,-3.90133 z"
       id="path25"
       transform="scale(0.26458333)" /><path
       style="fill:#0000ff;fill-opacity:1;stroke-width:2.20534"
       d="m 639.54953,810.46362 c 0,-5.42147 0.29404,-5.51335 17.64274,-5.51335 17.3487,0 17.64275,0.0919 17.64275,5.51335 0,5.42147 -0.29405,5.51336 -17.64275,5.51336 -17.3487,0 -17.64274,-0.0919 -17.64274,-5.51336 z"
       id="path26"
       transform="scale(0.26458333)" /><path
       style="fill:#0000ff;fill-opacity:1;stroke-width:2.20534"
       d="m 639.54953,774.07546 v -6.61603 h 17.64274 17.64275 v 6.61603 6.61603 h -17.64275 -17.64274 z"
       id="path27"
       transform="scale(0.26458333)" /><path
       style="fill:#0000ff;fill-opacity:1;stroke-width:2.20534"
       d="m 531.48771,774.07546 v -6.61603 h 17.64274 17.64275 v 6.61603 6.61603 h -17.64275 -17.64274 z"
       id="path28"
       transform="scale(0.26458333)" /><path
       style="fill:#0000ff;fill-opacity:1;stroke-width:2.20534"
       d="m 531.48771,810.46362 c 0,-5.42147 0.29405,-5.51335 17.64274,-5.51335 17.34871,0 17.64275,0.0919 17.64275,5.51335 0,5.42147 -0.29404,5.51336 -17.64275,5.51336 -17.34869,0 -17.64274,-0.0919 -17.64274,-5.51336 z"
       id="path29"
       transform="scale(0.26458333)" /><path
       style="fill:#0000ff;fill-opacity:1;stroke-width:2.20534"
       d="m 233.76638,774.07546 v -6.61603 h 17.64274 17.64275 v 6.61603 6.61603 h -17.64275 -17.64274 z"
       id="path30"
       transform="scale(0.26458333)" /><path
       style="fill:#0000ff;fill-opacity:1;stroke-width:2.20534"
       d="m 233.76638,810.46362 c 0,-5.42147 0.29404,-5.51335 17.64274,-5.51335 17.3487,0 17.64275,0.0919 17.64275,5.51335 0,5.42147 -0.29405,5.51336 -17.64275,5.51336 -17.3487,0 -17.64274,-0.0919 -17.64274,-5.51336 z"
       id="path31"
       transform="scale(0.26458333)" /><path
       style="fill:#0000ff;fill-opacity:1;stroke-width:2.20534"
       d="m 125.70456,810.46362 c 0,-5.42147 0.29405,-5.51335 17.64275,-5.51335 17.3487,0 17.64274,0.0919 17.64274,5.51335 0,5.42147 -0.29404,5.51336 -17.64274,5.51336 -17.3487,0 -17.64275,-0.0919 -17.64275,-5.51336 z"
       id="path32"
       transform="scale(0.26458333)" /><path
       style="fill:#0000ff;fill-opacity:1;stroke-width:2.20534"
       d="m 125.70456,774.07546 v -6.61603 h 17.64275 17.64274 v 6.61603 6.61603 h -17.64274 -17.64275 z"
       id="path33"
       transform="scale(0.26458333)" /><path
       style="fill:#0000ff;fill-opacity:1;stroke-width:2.20534"
       d="m 125.70456,678.14303 c 0,-5.42147 0.29405,-5.51336 17.64275,-5.51336 17.3487,0 17.64274,0.0919 17.64274,5.51336 0,5.42147 -0.29404,5.51336 -17.64274,5.51336 -17.3487,0 -17.64275,-0.0919 -17.64275,-5.51336 z"
       id="path34"
       transform="scale(0.26458333)" /><path
       style="fill:#0000ff;fill-opacity:1;stroke-width:2.20534"
       d="m 125.70456,636.24151 v -12.12939 h 17.64275 17.64274 v 12.12939 12.12939 h -17.64274 -17.64275 z"
       id="path35"
       transform="scale(0.26458333)" /><path
       style="fill:#0000ff;fill-opacity:1;stroke-width:2.20534"
       d="m 233.76638,636.24151 v -12.12939 h 17.64274 17.64275 v 12.12939 12.12939 h -17.64275 -17.64274 z"
       id="path36"
       transform="scale(0.26458333)" /><path
       style="fill:#0000ff;fill-opacity:1;stroke-width:2.20534"
       d="m 242.03642,671.01491 c 5.15499,-0.4643 13.59042,-0.4643 18.74541,0 5.15499,0.4643 0.93727,0.84419 -9.37271,0.84419 -10.30998,0 -14.52769,-0.37989 -9.3727,-0.84419 z"
       id="path37"
       transform="scale(0.26458333)" /><path
       style="fill:#0000ff;fill-opacity:1;stroke-width:2.20534"
       d="m 233.76638,678.14303 c 0,-5.42147 0.29404,-5.51336 17.64274,-5.51336 17.3487,0 17.64275,0.0919 17.64275,5.51336 0,5.42147 -0.29405,5.51336 -17.64275,5.51336 -17.3487,0 -17.64274,-0.0919 -17.64274,-5.51336 z"
       id="path38"
       transform="scale(0.26458333)" /><path
       style="fill:url(#linearGradient40);fill-opacity:1;stroke-width:2.20534"
       d="m 412.39918,265.74385 v -23.1561 h 42.00746 42.00747 l -6.72197,9.77006 c -3.69709,5.37353 -6.72198,11.39725 -6.72198,13.38604 0,1.9888 3.02489,8.01252 6.72198,13.38605 l 6.72197,9.77006 h -42.00747 -42.00746 z"
       id="path39"
       transform="scale(0.26458333)" /></g></svg>
